<?xml version='1.0' encoding='UTF-8'?>
<svg width="41mm" height="41mm" version="1.1" viewBox="0 0 41 41" xmlns="http://www.w3.org/2000/svg"><path d="M2,2H3V3H2zM3,2H4V3H3zM4,2H5V3H4zM5,2H6V3H5zM6,2H7V3H6zM7,2H8V3H7zM8,2H9V3H8zM11,2H12V3H11zM12,2H13V3H12zM13,2H14V3H13zM14,2H15V3H14zM16,2H17V3H16zM18,2H19V3H18zM19,2H20V3H19zM21,2H22V3H21zM24,2H25V3H24zM30,2H31V3H30zM32,2H33V3H32zM33,2H34V3H33zM34,2H35V3H34zM35,2H36V3H35zM36,2H37V3H36zM37,2H38V3H37zM38,2H39V3H38zM2,3H3V4H2zM8,3H9V4H8zM14,3H15V4H14zM16,3H17V4H16zM17,3H18V4H17zM18,3H19V4H18zM22,3H23V4H22zM24,3H25V4H24zM30,3H31V4H30zM32,3H33V4H32zM38,3H39V4H38zM2,4H3V5H2zM4,4H5V5H4zM5,4H6V5H5zM6,4H7V5H6zM8,4H9V5H8zM11,4H12V5H11zM14,4H15V5H14zM17,4H18V5H17zM19,4H20V5H19zM20,4H21V5H20zM23,4H24V5H23zM27,4H28V5H27zM30,4H31V5H30zM32,4H33V5H32zM34,4H35V5H34zM35,4H36V5H35zM36,4H37V5H36zM38,4H39V5H38zM2,5H3V6H2zM4,5H5V6H4zM5,5H6V6H5zM6,5H7V6H6zM8,5H9V6H8zM13,5H14V6H13zM14,5H15V6H14zM18,5H19V6H18zM19,5H20V6H19zM21,5H22V6H21zM22,5H23V6H22zM23,5H24V6H23zM24,5H25V6H24zM26,5H27V6H26zM27,5H28V6H27zM29,5H30V6H29zM32,5H33V6H32zM34,5H35V6H34zM35,5H36V6H35zM36,5H37V6H36zM38,5H39V6H38zM2,6H3V7H2zM4,6H5V7H4zM5,6H6V7H5zM6,6H7V7H6zM8,6H9V7H8zM10,6H11V7H10zM12,6H13V7H12zM13,6H14V7H13zM14,6H15V7H14zM15,6H16V7H15zM16,6H17V7H16zM17,6H18V7H17zM18,6H19V7H18zM22,6H23V7H22zM28,6H29V7H28zM29,6H30V7H29zM32,6H33V7H32zM34,6H35V7H34zM35,6H36V7H35zM36,6H37V7H36zM38,6H39V7H38zM2,7H3V8H2zM8,7H9V8H8zM15,7H16V8H15zM17,7H18V8H17zM19,7H20V8H19zM20,7H21V8H20zM21,7H22V8H21zM22,7H23V8H22zM27,7H28V8H27zM28,7H29V8H28zM32,7H33V8H32zM38,7H39V8H38zM2,8H3V9H2zM3,8H4V9H3zM4,8H5V9H4zM5,8H6V9H5zM6,8H7V9H6zM7,8H8V9H7zM8,8H9V9H8zM10,8H11V9H10zM12,8H13V9H12zM14,8H15V9H14zM16,8H17V9H16zM18,8H19V9H18zM20,8H21V9H20zM22,8H23V9H22zM24,8H25V9H24zM26,8H27V9H26zM28,8H29V9H28zM30,8H31V9H30zM32,8H33V9H32zM33,8H34V9H33zM34,8H35V9H34zM35,8H36V9H35zM36,8H37V9H36zM37,8H38V9H37zM38,8H39V9H38zM10,9H11V10H10zM17,9H18V10H17zM19,9H20V10H19zM20,9H21V10H20zM24,9H25V10H24zM25,9H26V10H25zM28,9H29V10H28zM29,9H30V10H29zM30,9H31V10H30zM4,10H5V11H4zM5,10H6V11H5zM8,10H9V11H8zM9,10H10V11H9zM10,10H11V11H10zM17,10H18V11H17zM18,10H19V11H18zM19,10H20V11H19zM21,10H22V11H21zM25,10H26V11H25zM28,10H29V11H28zM29,10H30V11H29zM30,10H31V11H30zM31,10H32V11H31zM32,10H33V11H32zM34,10H35V11H34zM2,11H3V12H2zM5,11H6V12H5zM6,11H7V12H6zM7,11H8V12H7zM13,11H14V12H13zM16,11H17V12H16zM18,11H19V12H18zM22,11H23V12H22zM23,11H24V12H23zM24,11H25V12H24zM26,11H27V12H26zM27,11H28V12H27zM30,11H31V12H30zM33,11H34V12H33zM35,11H36V12H35zM5,12H6V13H5zM6,12H7V13H6zM8,12H9V13H8zM12,12H13V13H12zM13,12H14V13H13zM16,12H17V13H16zM18,12H19V13H18zM20,12H21V13H20zM21,12H22V13H21zM24,12H25V13H24zM25,12H26V13H25zM27,12H28V13H27zM30,12H31V13H30zM31,12H32V13H31zM33,12H34V13H33zM34,12H35V13H34zM36,12H37V13H36zM37,12H38V13H37zM2,13H3V14H2zM4,13H5V14H4zM5,13H6V14H5zM6,13H7V14H6zM10,13H11V14H10zM13,13H14V14H13zM14,13H15V14H14zM16,13H17V14H16zM18,13H19V14H18zM20,13H21V14H20zM22,13H23V14H22zM23,13H24V14H23zM24,13H25V14H24zM27,13H28V14H27zM28,13H29V14H28zM30,13H31V14H30zM34,13H35V14H34zM35,13H36V14H35zM36,13H37V14H36zM5,14H6V15H5zM6,14H7V15H6zM8,14H9V15H8zM9,14H10V15H9zM15,14H16V15H15zM20,14H21V15H20zM21,14H22V15H21zM26,14H27V15H26zM27,14H28V15H27zM28,14H29V15H28zM29,14H30V15H29zM30,14H31V15H30zM31,14H32V15H31zM32,14H33V15H32zM33,14H34V15H33zM34,14H35V15H34zM36,14H37V15H36zM37,14H38V15H37zM2,15H3V16H2zM3,15H4V16H3zM6,15H7V16H6zM7,15H8V16H7zM9,15H10V16H9zM10,15H11V16H10zM11,15H12V16H11zM13,15H14V16H13zM14,15H15V16H14zM17,15H18V16H17zM18,15H19V16H18zM20,15H21V16H20zM22,15H23V16H22zM23,15H24V16H23zM24,15H25V16H24zM25,15H26V16H25zM26,15H27V16H26zM27,15H28V16H27zM29,15H30V16H29zM30,15H31V16H30zM32,15H33V16H32zM34,15H35V16H34zM36,15H37V16H36zM37,15H38V16H37zM38,15H39V16H38zM2,16H3V17H2zM6,16H7V17H6zM8,16H9V17H8zM10,16H11V17H10zM12,16H13V17H12zM13,16H14V17H13zM14,16H15V17H14zM15,16H16V17H15zM16,16H17V17H16zM17,16H18V17H17zM18,16H19V17H18zM20,16H21V17H20zM21,16H22V17H21zM23,16H24V17H23zM25,16H26V17H25zM26,16H27V17H26zM27,16H28V17H27zM28,16H29V17H28zM34,16H35V17H34zM36,16H37V17H36zM37,16H38V17H37zM2,17H3V18H2zM3,17H4V18H3zM9,17H10V18H9zM10,17H11V18H10zM12,17H13V18H12zM13,17H14V18H13zM16,17H17V18H16zM19,17H20V18H19zM20,17H21V18H20zM21,17H22V18H21zM24,17H25V18H24zM26,17H27V18H26zM29,17H30V18H29zM31,17H32V18H31zM38,17H39V18H38zM8,18H9V19H8zM9,18H10V19H9zM10,18H11V19H10zM13,18H14V19H13zM15,18H16V19H15zM17,18H18V19H17zM18,18H19V19H18zM19,18H20V19H19zM21,18H22V19H21zM22,18H23V19H22zM23,18H24V19H23zM27,18H28V19H27zM28,18H29V19H28zM29,18H30V19H29zM33,18H34V19H33zM35,18H36V19H35zM36,18H37V19H36zM2,19H3V20H2zM6,19H7V20H6zM9,19H10V20H9zM11,19H12V20H11zM12,19H13V20H12zM13,19H14V20H13zM19,19H20V20H19zM25,19H26V20H25zM29,19H30V20H29zM31,19H32V20H31zM32,19H33V20H32zM36,19H37V20H36zM38,19H39V20H38zM2,20H3V21H2zM4,20H5V21H4zM7,20H8V21H7zM8,20H9V21H8zM13,20H14V21H13zM14,20H15V21H14zM18,20H19V21H18zM19,20H20V21H19zM20,20H21V21H20zM22,20H23V21H22zM24,20H25V21H24zM25,20H26V21H25zM26,20H27V21H26zM28,20H29V21H28zM29,20H30V21H29zM31,20H32V21H31zM33,20H34V21H33zM37,20H38V21H37zM38,20H39V21H38zM3,21H4V22H3zM4,21H5V22H4zM5,21H6V22H5zM10,21H11V22H10zM12,21H13V22H12zM16,21H17V22H16zM20,21H21V22H20zM21,21H22V22H21zM23,21H24V22H23zM24,21H25V22H24zM25,21H26V22H25zM26,21H27V22H26zM29,21H30V22H29zM33,21H34V22H33zM34,21H35V22H34zM35,21H36V22H35zM38,21H39V22H38zM4,22H5V23H4zM6,22H7V23H6zM8,22H9V23H8zM12,22H13V23H12zM14,22H15V23H14zM15,22H16V23H15zM16,22H17V23H16zM17,22H18V23H17zM19,22H20V23H19zM20,22H21V23H20zM24,22H25V23H24zM26,22H27V23H26zM28,22H29V23H28zM30,22H31V23H30zM31,22H32V23H31zM34,22H35V23H34zM38,22H39V23H38zM5,23H6V24H5zM6,23H7V24H6zM9,23H10V24H9zM10,23H11V24H10zM11,23H12V24H11zM13,23H14V24H13zM15,23H16V24H15zM16,23H17V24H16zM18,23H19V24H18zM19,23H20V24H19zM26,23H27V24H26zM28,23H29V24H28zM33,23H34V24H33zM36,23H37V24H36zM37,23H38V24H37zM4,24H5V25H4zM5,24H6V25H5zM6,24H7V25H6zM8,24H9V25H8zM9,24H10V25H9zM10,24H11V25H10zM13,24H14V25H13zM15,24H16V25H15zM18,24H19V25H18zM19,24H20V25H19zM21,24H22V25H21zM25,24H26V25H25zM26,24H27V25H26zM28,24H29V25H28zM34,24H35V25H34zM35,24H36V25H35zM36,24H37V25H36zM4,25H5V26H4zM6,25H7V26H6zM7,25H8V26H7zM10,25H11V26H10zM11,25H12V26H11zM12,25H13V26H12zM13,25H14V26H13zM14,25H15V26H14zM16,25H17V26H16zM17,25H18V26H17zM18,25H19V26H18zM19,25H20V26H19zM21,25H22V26H21zM24,25H25V26H24zM25,25H26V26H25zM26,25H27V26H26zM27,25H28V26H27zM28,25H29V26H28zM29,25H30V26H29zM30,25H31V26H30zM31,25H32V26H31zM32,25H33V26H32zM36,25H37V26H36zM37,25H38V26H37zM3,26H4V27H3zM4,26H5V27H4zM8,26H9V27H8zM11,26H12V27H11zM12,26H13V27H12zM13,26H14V27H13zM14,26H15V27H14zM15,26H16V27H15zM16,26H17V27H16zM17,26H18V27H17zM22,26H23V27H22zM25,26H26V27H25zM26,26H27V27H26zM27,26H28V27H27zM28,26H29V27H28zM31,26H32V27H31zM32,26H33V27H32zM34,26H35V27H34zM36,26H37V27H36zM37,26H38V27H37zM38,26H39V27H38zM4,27H5V28H4zM5,27H6V28H5zM7,27H8V28H7zM9,27H10V28H9zM12,27H13V28H12zM13,27H14V28H13zM14,27H15V28H14zM17,27H18V28H17zM18,27H19V28H18zM19,27H20V28H19zM24,27H25V28H24zM25,27H26V28H25zM26,27H27V28H26zM28,27H29V28H28zM29,27H30V28H29zM30,27H31V28H30zM32,27H33V28H32zM34,27H35V28H34zM35,27H36V28H35zM37,27H38V28H37zM38,27H39V28H38zM3,28H4V29H3zM5,28H6V29H5zM7,28H8V29H7zM8,28H9V29H8zM11,28H12V29H11zM13,28H14V29H13zM14,28H15V29H14zM17,28H18V29H17zM18,28H19V29H18zM21,28H22V29H21zM23,28H24V29H23zM24,28H25V29H24zM25,28H26V29H25zM34,28H35V29H34zM36,28H37V29H36zM37,28H38V29H37zM2,29H3V30H2zM4,29H5V30H4zM5,29H6V30H5zM6,29H7V30H6zM9,29H10V30H9zM11,29H12V30H11zM14,29H15V30H14zM16,29H17V30H16zM21,29H22V30H21zM23,29H24V30H23zM24,29H25V30H24zM25,29H26V30H25zM29,29H30V30H29zM30,29H31V30H30zM31,29H32V30H31zM33,29H34V30H33zM34,29H35V30H34zM37,29H38V30H37zM4,30H5V31H4zM6,30H7V31H6zM7,30H8V31H7zM8,30H9V31H8zM13,30H14V31H13zM15,30H16V31H15zM17,30H18V31H17zM19,30H20V31H19zM20,30H21V31H20zM21,30H22V31H21zM23,30H24V31H23zM24,30H25V31H24zM27,30H28V31H27zM30,30H31V31H30zM31,30H32V31H31zM32,30H33V31H32zM33,30H34V31H33zM34,30H35V31H34zM36,30H37V31H36zM37,30H38V31H37zM10,31H11V32H10zM13,31H14V32H13zM14,31H15V32H14zM15,31H16V32H15zM17,31H18V32H17zM18,31H19V32H18zM19,31H20V32H19zM20,31H21V32H20zM22,31H23V32H22zM23,31H24V32H23zM24,31H25V32H24zM25,31H26V32H25zM26,31H27V32H26zM28,31H29V32H28zM30,31H31V32H30zM34,31H35V32H34zM35,31H36V32H35zM36,31H37V32H36zM37,31H38V32H37zM38,31H39V32H38zM2,32H3V33H2zM3,32H4V33H3zM4,32H5V33H4zM5,32H6V33H5zM6,32H7V33H6zM7,32H8V33H7zM8,32H9V33H8zM10,32H11V33H10zM12,32H13V33H12zM15,32H16V33H15zM19,32H20V33H19zM20,32H21V33H20zM22,32H23V33H22zM24,32H25V33H24zM27,32H28V33H27zM28,32H29V33H28zM30,32H31V33H30zM32,32H33V33H32zM34,32H35V33H34zM35,32H36V33H35zM37,32H38V33H37zM38,32H39V33H38zM2,33H3V34H2zM8,33H9V34H8zM11,33H12V34H11zM13,33H14V34H13zM15,33H16V34H15zM16,33H17V34H16zM18,33H19V34H18zM19,33H20V34H19zM21,33H22V34H21zM25,33H26V34H25zM26,33H27V34H26zM28,33H29V34H28zM29,33H30V34H29zM30,33H31V34H30zM34,33H35V34H34zM35,33H36V34H35zM2,34H3V35H2zM4,34H5V35H4zM5,34H6V35H5zM6,34H7V35H6zM8,34H9V35H8zM11,34H12V35H11zM12,34H13V35H12zM13,34H14V35H13zM18,34H19V35H18zM20,34H21V35H20zM22,34H23V35H22zM28,34H29V35H28zM30,34H31V35H30zM31,34H32V35H31zM32,34H33V35H32zM33,34H34V35H33zM34,34H35V35H34zM35,34H36V35H35zM37,34H38V35H37zM2,35H3V36H2zM4,35H5V36H4zM5,35H6V36H5zM6,35H7V36H6zM8,35H9V36H8zM10,35H11V36H10zM11,35H12V36H11zM12,35H13V36H12zM13,35H14V36H13zM14,35H15V36H14zM16,35H17V36H16zM18,35H19V36H18zM20,35H21V36H20zM23,35H24V36H23zM24,35H25V36H24zM26,35H27V36H26zM30,35H31V36H30zM32,35H33V36H32zM34,35H35V36H34zM35,35H36V36H35zM2,36H3V37H2zM4,36H5V37H4zM5,36H6V37H5zM6,36H7V37H6zM8,36H9V37H8zM10,36H11V37H10zM12,36H13V37H12zM13,36H14V37H13zM18,36H19V37H18zM21,36H22V37H21zM24,36H25V37H24zM25,36H26V37H25zM28,36H29V37H28zM29,36H30V37H29zM30,36H31V37H30zM32,36H33V37H32zM33,36H34V37H33zM34,36H35V37H34zM35,36H36V37H35zM37,36H38V37H37zM2,37H3V38H2zM8,37H9V38H8zM11,37H12V38H11zM12,37H13V38H12zM17,37H18V38H17zM20,37H21V38H20zM24,37H25V38H24zM26,37H27V38H26zM27,37H28V38H27zM29,37H30V38H29zM31,37H32V38H31zM34,37H35V38H34zM35,37H36V38H35zM36,37H37V38H36zM2,38H3V39H2zM3,38H4V39H3zM4,38H5V39H4zM5,38H6V39H5zM6,38H7V39H6zM7,38H8V39H7zM8,38H9V39H8zM11,38H12V39H11zM13,38H14V39H13zM15,38H16V39H15zM16,38H17V39H16zM17,38H18V39H17zM19,38H20V39H19zM20,38H21V39H20zM21,38H22V39H21zM25,38H26V39H25zM27,38H28V39H27zM28,38H29V39H28zM32,38H33V39H32zM33,38H34V39H33zM34,38H35V39H34zM36,38H37V39H36zM37,38H38V39H37zM38,38H39V39H38z" id="qr-path" fill="#0F6E56" fill-opacity="1" fill-rule="nonzero" stroke="none" /></svg>